<?xml version="1.0" standalone="no"?>
<!DOCTYPE svg PUBLIC "-//W3C//DTD SVG 20010904//EN" "http://www.w3.org/TR/2001/REC-SVG-20010904/DTD/svg10.dtd">
<svg xmlns="http://www.w3.org/2000/svg" version="1.0" width="564.000000pt" height="515.000000pt" viewBox="0 0 564.000000 515.000000" preserveAspectRatio="xMidYMid meet">
<metadata>
Created by potrace 1.16, written by Peter Selinger 2001-2019
<meta name="Producer" content="Online-Convert"/></metadata>
<g transform="translate(0.000000,515.000000) scale(0.100000,-0.100000)" fill="#000000" stroke="none">
<path d="M170 3815 l0 -1195 974 0 973 0 5 98 c11 199 82 356 223 497 101 101 177 150 289 185 l76 24 0 793 0 793 -1270 0 -1270 0 0 -1195z m1580 55 l0 -770 -250 0 -250 0 0 770 0 770 250 0 250 0 0 -770z"/>
<path d="M2590 2895 c-13 -14 -46 -33 -72 -43 -42 -15 -48 -20 -48 -46 l0 -29 50 7 50 7 0 -156 0 -155 70 0 70 0 0 220 0 220 -48 0 c-39 0 -53 -5 -72 -25z"/>
<path d="M2945 2906 c-83 -37 -106 -128 -49 -195 24 -29 24 -29 3 -36 -11 -4 -27 -23 -35 -42 -21 -50 -4 -96 49 -131 36 -24 50 -27 126 -27 73 0 92 4 124 23 78 49 90 148 25 207 l-33 31 22 33 c13 19 23 40 23 48 0 29 -30 71 -64 87 -41 19 -148 21 -191 2z m100 -267 c43 -16 56 -26 61 -46 13 -51 -43 -93 -99 -74 -68 24 -97 82 -60 123 21 23 30 23 98 -3z"/>
</g>
</svg>
